<svg width="28" height="33" viewBox="0 0 28 33" fill="none" xmlns="http://www.w3.org/2000/svg">
<path d="M1.25 19.1661H1V19.4161C1 21.9873 1.76244 24.5007 3.1909 26.6385C4.61936 28.7764 6.64968 30.4426 9.02512 31.4265C11.4005 32.4105 14.0144 32.6679 16.5362 32.1663C19.0579 31.6647 21.3743 30.4266 23.1924 28.6085C25.0105 26.7904 26.2486 24.474 26.7502 21.9523C27.2518 19.4305 26.9944 16.8167 26.0104 14.4412C25.0265 12.0658 23.3602 10.0354 21.2224 8.60694C19.0846 7.17849 16.5711 6.41605 14 6.41605H8.01605L11.4143 3.01783L11.591 2.84105L11.4143 2.66427L9.92678 1.17678L9.75 1L9.57323 1.17678L3.19823 7.55177L3.02145 7.72855L3.19823 7.90533L9.57322 14.2804L9.75 14.4572L9.92678 14.2804L11.4143 12.7929L11.591 12.6161L11.4143 12.4393L8.01605 9.04105H14C16.052 9.04105 18.0579 9.64953 19.764 10.7896C21.4702 11.9296 22.8 13.55 23.5852 15.4458C24.3705 17.3415 24.576 19.4276 24.1756 21.4402C23.7753 23.4527 22.7872 25.3014 21.3362 26.7523C19.8853 28.2033 18.0366 29.1914 16.0241 29.5917C14.0115 29.9921 11.9254 29.7866 10.0297 29.0014C8.13388 28.2161 6.51352 26.8863 5.3735 25.1801C4.23348 23.474 3.625 21.4681 3.625 19.4161V19.1661H3.375H1.25Z" fill="#DBFF00" stroke="#DBFF00" stroke-width="0.5"/>
</svg>
